<svg width="16" height="17" viewBox="0 0 16 17" xmlns="http://www.w3.org/2000/svg"><title>account_icon</title><g fill="#FFF" fill-rule="evenodd"><path d="M15.83 14.7c-.1-.14-2.36-3.45-7.83-3.45-5.47 0-7.74 3.3-7.83 3.45-.3.46-.18 1.08.28 1.38.45.3 1.07.18 1.38-.27.02-.02 1.76-2.55 6.17-2.55 4.35 0 6.1 2.46 6.17 2.55.2.3.5.45.83.45.2 0 .4-.05.55-.17.46-.3.6-.92.28-1.38M8 10.25c2.2 0 4-1.8 4-4v-2c0-2.2-1.8-4-4-4s-4 1.8-4 4v2c0 2.2 1.8 4 4 4zm-2-6c0-1.1.9-2 2-2s2 .9 2 2v2c0 1.1-.9 2-2 2s-2-.9-2-2v-2z"/></g></svg>