<?xml version="1.0" encoding="UTF-8" standalone="no"?>
<svg width="16px" height="16px" viewBox="0 0 16 16" version="1.1" xmlns="http://www.w3.org/2000/svg" xmlns:xlink="http://www.w3.org/1999/xlink" xmlns:sketch="http://www.bohemiancoding.com/sketch/ns">
    <!-- Generator: Sketch 3.3.1 (12002) - http://www.bohemiancoding.com/sketch -->
    <title>avatar icon</title>
    <desc>Created with Sketch.</desc>
    <defs></defs>
    <g id="Blog" stroke="none" stroke-width="1" fill="none" fill-rule="evenodd" sketch:type="MSPage">
        <g id="Blog---multiple" sketch:type="MSArtboardGroup" transform="translate(-732.000000, -948.000000)" fill="#B6BAC2">
            <g id="blog-post-1" sketch:type="MSLayerGroup" transform="translate(121.000000, 397.000000)">
                <g id="author-+-date" transform="translate(448.000000, 548.000000)" sketch:type="MSShapeGroup">
                    <g id="author" transform="translate(163.000000, 0.000000)">
                        <path d="M8,3 C3.582,3 0,6.582 0,11 C0,15.418 3.582,19 8,19 C12.418,19 16,15.418 16,11 C16,6.582 12.418,3 8,3 L8,3 Z M5.105,16.254 C5.438,14.961 6.602,14 8,14 C9.398,14 10.563,14.961 10.896,16.254 C10.036,16.728 9.051,17 8,17 C6.949,17 5.964,16.728 5.105,16.254 L5.105,16.254 Z M8,11 C7.447,11 7,10.553 7,10 C7,9.447 7.447,9 8,9 C8.553,9 9,9.447 9,10 C9,10.553 8.553,11 8,11 L8,11 Z M12.532,14.924 C11.997,13.757 11.034,12.832 9.835,12.357 C10.539,11.809 11,10.962 11,10 C11,8.344 9.657,7 8,7 C6.343,7 5,8.344 5,10 C5,10.962 5.461,11.809 6.165,12.357 C4.966,12.832 4.003,13.757 3.468,14.924 C2.556,13.871 2,12.502 2,11 C2,7.686 4.687,5 8,5 C11.314,5 14,7.686 14,11 C14,12.502 13.444,13.871 12.532,14.924 L12.532,14.924 Z" id="avatar-icon"></path>
                    </g>
                </g>
            </g>
        </g>
    </g>
</svg>