<?xml version="1.0" encoding="UTF-8" standalone="no"?>
<svg width="14px" height="17px" viewBox="0 0 14 17" version="1.1" xmlns="http://www.w3.org/2000/svg" xmlns:xlink="http://www.w3.org/1999/xlink" xmlns:sketch="http://www.bohemiancoding.com/sketch/ns">
    <!-- Generator: Sketch 3.3.1 (12002) - http://www.bohemiancoding.com/sketch -->
    <title>bill to</title>
    <desc>Created with Sketch.</desc>
    <defs></defs>
    <g id="Account" stroke="none" stroke-width="1" fill="none" fill-rule="evenodd" sketch:type="MSPage">
        <g id="Account---orders-Individual" sketch:type="MSArtboardGroup" transform="translate(-1306.000000, -492.000000)" fill="#B6BAC2">
            <g id="right-sidebar" sketch:type="MSLayerGroup" transform="translate(1077.000000, 261.000000)">
                <g id="bill-to" transform="translate(1.000000, 225.000000)" sketch:type="MSShapeGroup">
                    <g transform="translate(228.000000, 6.000000)">
                        <path d="M13,0.012 L1,0.012 C0.447,0.012 0,0.459 0,1.012 L0,15.012 C0,15.565 0.447,16.012 1,16.012 L13,16.012 C13.553,16.012 14,15.565 14,15.012 L14,1.012 C14,0.459 13.553,0.012 13,0.012 L13,0.012 Z M12,14.012 L8,14.012 L8,11.012 L6,11.012 L6,14.012 L2,14.012 L2,2.012 L12,2.012 L12,14.012 L12,14.012 Z" id="Fill-1"></path>
                        <path d="M8,4.012 L10,4.012 L10,6.012 L8,6.012 L8,4.012 Z" id="Fill-2"></path>
                        <path d="M4,4.012 L6,4.012 L6,6.012 L4,6.012 L4,4.012 Z" id="Fill-3"></path>
                        <path d="M4,8.012 L6,8.012 L6,10.012 L4,10.012 L4,8.012 Z" id="Fill-4"></path>
                        <path d="M8,8.012 L10,8.012 L10,10.012 L8,10.012 L8,8.012 Z" id="Fill-5"></path>
                    </g>
                </g>
            </g>
        </g>
    </g>
</svg>