<?xml version="1.0" encoding="UTF-8" standalone="no"?>
<svg width="16px" height="16px" viewBox="0 0 16 16" version="1.1" xmlns="http://www.w3.org/2000/svg" xmlns:xlink="http://www.w3.org/1999/xlink" xmlns:sketch="http://www.bohemiancoding.com/sketch/ns">
    <!-- Generator: Sketch 3.3.1 (12002) - http://www.bohemiancoding.com/sketch -->
    <title>clock icon</title>
    <desc>Created with Sketch.</desc>
    <defs></defs>
    <g id="Pages" stroke="none" stroke-width="1" fill="none" fill-rule="evenodd" sketch:type="MSPage">
        <g id="Contact" sketch:type="MSArtboardGroup" transform="translate(-762.000000, -2013.000000)" fill="#B6BAC2">
            <g id="store-locations" sketch:type="MSLayerGroup" transform="translate(121.000000, 1803.000000)">
                <g id="address-3" transform="translate(614.000000, 59.000000)" sketch:type="MSShapeGroup">
                    <g id="clock-icon" transform="translate(26.000000, 151.000000)">
                        <path d="M8.999,0 C4.581,0 0.999,3.582 0.999,8 C0.999,12.418 4.581,16 8.999,16 C13.417,16 16.999,12.418 16.999,8 C16.999,3.582 13.417,0 8.999,0 L8.999,0 Z M8.999,14 C5.685,14 2.999,11.314 2.999,8 C2.999,4.687 5.685,2 8.999,2 C12.312,2 14.999,4.687 14.999,8 C14.999,11.314 12.312,14 8.999,14 L8.999,14 Z" id="Fill-1"></path>
                        <path d="M9.999,7.586 L9.999,4 C9.999,3.447 9.552,3 8.999,3 C8.446,3 7.999,3.447 7.999,4 L7.999,8 C7.999,8.131 8.025,8.26 8.076,8.382 C8.127,8.505 8.2,8.616 8.293,8.708 L10.276,10.691 C10.668,11.083 11.318,11.102 11.71,10.711 C12.101,10.32 12.105,9.692 11.714,9.301 L9.999,7.586" id="Fill-2"></path>
                    </g>
                </g>
            </g>
        </g>
    </g>
</svg>