<?xml version="1.0" encoding="UTF-8" standalone="no"?>
<svg width="17px" height="17px" viewBox="0 0 17 17" version="1.1" xmlns="http://www.w3.org/2000/svg" xmlns:xlink="http://www.w3.org/1999/xlink" xmlns:sketch="http://www.bohemiancoding.com/sketch/ns">
    <!-- Generator: Sketch 3.3.1 (12002) - http://www.bohemiancoding.com/sketch -->
    <title>grid icon</title>
    <desc>Created with Sketch.</desc>
    <defs></defs>
    <g id="Search" stroke="none" stroke-width="1" fill="none" fill-rule="evenodd" sketch:type="MSPage">
        <g sketch:type="MSArtboardGroup" transform="translate(-1245.000000, -460.000000)" id="view" fill="#FFFFFF">
            <g sketch:type="MSLayerGroup" transform="translate(1231.000000, 446.000000)">
                <g id="grid" sketch:type="MSShapeGroup">
                    <path d="M20.7413793,23.3793103 L14.8793103,23.3793103 C14.3936379,23.3793103 14,23.7729483 14,24.2586207 L14,30.1206897 C14,30.6063621 14.3936379,31 14.8793103,31 L20.7413793,31 C21.2270517,31 21.6206897,30.6063621 21.6206897,30.1206897 L21.6206897,24.2586207 C21.6206897,23.7729483 21.2270517,23.3793103 20.7413793,23.3793103 L20.7413793,23.3793103 Z M20.7413793,14 L14.8793103,14 C14.3936379,14 14,14.3936379 14,14.8793103 L14,20.7413793 C14,21.2270517 14.3936379,21.6206897 14.8793103,21.6206897 L20.7413793,21.6206897 C21.2270517,21.6206897 21.6206897,21.2270517 21.6206897,20.7413793 L21.6206897,14.8793103 C21.6206897,14.3936379 21.2270517,14 20.7413793,14 L20.7413793,14 Z M30.1206897,14 L24.2586207,14 C23.7729483,14 23.3793103,14.3936379 23.3793103,14.8793103 L23.3793103,20.7413793 C23.3793103,21.2270517 23.7729483,21.6206897 24.2586207,21.6206897 L30.1206897,21.6206897 C30.6063621,21.6206897 31,21.2270517 31,20.7413793 L31,14.8793103 C31,14.3936379 30.6063621,14 30.1206897,14 L30.1206897,14 Z M30.1206897,23.3793103 L24.2586207,23.3793103 C23.7729483,23.3793103 23.3793103,23.7729483 23.3793103,24.2586207 L23.3793103,30.1206897 C23.3793103,30.6063621 23.7729483,31 24.2586207,31 L30.1206897,31 C30.6063621,31 31,30.6063621 31,30.1206897 L31,24.2586207 C31,23.7729483 30.6063621,23.3793103 30.1206897,23.3793103 L30.1206897,23.3793103 Z" id="grid-icon"></path>
                </g>
            </g>
        </g>
    </g>
</svg>