<svg width="18" height="15" viewBox="0 0 18 15" xmlns="http://www.w3.org/2000/svg"><title>fav_icon</title><path d="M13.27.3c-1.18 0-2.25.5-3.02 1.26L9 2.8 7.75 1.56C6.98.8 5.9.3 4.73.3 2.38.3.47 2.23.47 4.58c0 1.18.76 2.28 1.53 3.05l6.25 6.25c.4.42 1.1.42 1.5 0l6.23-6.23c.78-.77 1.55-1.9 1.55-3.07 0-2.35-1.9-4.26-4.26-4.26zM9 11.6L3.5 6.1c-.4-.38-.9-.94-.9-1.53 0-1.17.95-2.13 2.13-2.13.6 0 1.13.24 1.5.63l2.02 2c.4.4 1.1.4 1.5 0l2-2c.4-.4.93-.63 1.52-.63 1.17 0 2.13.96 2.13 2.13 0 .6-.5 1.15-.9 1.54L9 11.6z" fill="#FFF" fill-rule="evenodd"/></svg>