<?xml version="1.0" encoding="UTF-8" standalone="no"?>
<svg width="19px" height="16px" viewBox="0 0 19 16" version="1.1" xmlns="http://www.w3.org/2000/svg" xmlns:xlink="http://www.w3.org/1999/xlink" xmlns:sketch="http://www.bohemiancoding.com/sketch/ns">
    <!-- Generator: Sketch 3.3.1 (12002) - http://www.bohemiancoding.com/sketch -->
    <title>list icon</title>
    <desc>Created with Sketch.</desc>
    <defs></defs>
    <g id="Search" stroke="none" stroke-width="1" fill="none" fill-rule="evenodd" sketch:type="MSPage">
        <g sketch:type="MSArtboardGroup" transform="translate(-1289.000000, -460.000000)" id="view" fill="#B6BAC2">
            <g sketch:type="MSLayerGroup" transform="translate(1231.000000, 446.000000)">
                <g id="list" transform="translate(44.000000, 0.000000)" sketch:type="MSShapeGroup">
                    <path d="M31.0916399,20.8424437 L15.6575563,20.8424437 C15.0181994,20.8424437 14.5,21.3606431 14.5,22 C14.5,22.6393569 15.0181994,23.1575563 15.6575563,23.1575563 L15.6575563,23.1575563 L31.0916399,23.1575563 C31.7309968,23.1575563 32.2491961,22.6393569 32.2491961,22 C32.2491961,21.3606431 31.7309968,20.8424437 31.0916399,20.8424437 L31.0916399,20.8424437 Z M15.6575563,16.3151125 L31.0916399,16.3151125 C31.7309968,16.3151125 32.2491961,15.7969132 32.2491961,15.1575563 C32.2491961,14.5181994 31.7309968,14 31.0916399,14 L15.6579421,14 L15.6575563,14 C15.0181994,14 14.5,14.5181994 14.5,15.1575563 C14.5,15.7969132 15.0181994,16.3151125 15.6575563,16.3151125 L15.6575563,16.3151125 Z M31.0916399,27.6848875 L15.6575563,27.6848875 C15.0181994,27.6848875 14.5,28.2030868 14.5,28.8424437 C14.5,29.4818006 15.0181994,30 15.6575563,30 L15.6575563,30 L31.0916399,30 C31.7309968,30 32.2491961,29.4818006 32.2491961,28.8424437 C32.2491961,28.2030868 31.7309968,27.6848875 31.0916399,27.6848875 L31.0916399,27.6848875 Z" id="list-icon"></path>
                </g>
            </g>
        </g>
    </g>
</svg>