<?xml version="1.0" encoding="UTF-8" standalone="no"?>
<svg width="12px" height="16px" viewBox="0 0 12 16" version="1.1" xmlns="http://www.w3.org/2000/svg" xmlns:xlink="http://www.w3.org/1999/xlink" xmlns:sketch="http://www.bohemiancoding.com/sketch/ns">
    <!-- Generator: Sketch 3.3.1 (12002) - http://www.bohemiancoding.com/sketch -->
    <title>password icon</title>
    <desc>Created with Sketch.</desc>
    <defs></defs>
    <g id="Account" stroke="none" stroke-width="1" fill="none" fill-rule="evenodd" sketch:type="MSPage">
        <g id="Account---login" sketch:type="MSArtboardGroup" transform="translate(-599.000000, -531.000000)" fill="#B6BAC2">
            <g id="existing-customers" sketch:type="MSLayerGroup" transform="translate(222.000000, 252.000000)">
                <g id="password-input" transform="translate(73.000000, 232.000000)" sketch:type="MSShapeGroup">
                    <g id="password-icon" transform="translate(304.000000, 47.000000)">
                        <path d="M11,6 L10,6 L10,4 C10,1.791 8.209,0 6,0 C3.791,0 2,1.791 2,4 L2,6 L1,6 C0.447,6 0,6.447 0,7 L0,15 C0,15.553 0.447,16 1,16 L11,16 C11.553,16 12,15.553 12,15 L12,7 C12,6.447 11.553,6 11,6 L11,6 Z M4,4 C4,2.896 4.896,2 6,2 C7.104,2 8,2.896 8,4 L8,6 L4,6 L4,4 L4,4 Z M2,8 L10,8 L10,14 L2,14 L2,8 Z" id="Fill-1"></path>
                        <path d="M6,12 C6.553,12 7,11.553 7,11 C7,10.447 6.553,10 6,10 C5.447,10 5,10.447 5,11 C5,11.553 5.447,12 6,12" id="Fill-2"></path>
                    </g>
                </g>
            </g>
        </g>
    </g>
</svg>