<?xml version="1.0" encoding="UTF-8" standalone="no"?>
<svg width="16px" height="16px" viewBox="0 0 16 16" version="1.1" xmlns="http://www.w3.org/2000/svg" xmlns:xlink="http://www.w3.org/1999/xlink" xmlns:sketch="http://www.bohemiancoding.com/sketch/ns">
    <!-- Generator: Sketch 3.3.1 (12002) - http://www.bohemiancoding.com/sketch -->
    <title>payment info icon</title>
    <desc>Created with Sketch.</desc>
    <defs></defs>
    <g id="Account" stroke="none" stroke-width="1" fill="none" fill-rule="evenodd" sketch:type="MSPage">
        <g id="Account---orders-Individual" sketch:type="MSArtboardGroup" transform="translate(-1305.000000, -717.000000)" fill="#B6BAC2">
            <g id="right-sidebar" sketch:type="MSLayerGroup" transform="translate(1077.000000, 261.000000)">
                <g id="payment-info" transform="translate(1.000000, 450.000000)" sketch:type="MSShapeGroup">
                    <path d="M242,11 L242,7 C242,6.447 241.553,6 241,6 L228,6 C227.447,6 227,6.447 227,7 L227,21 C227,21.553 227.447,22 228,22 L241,22 C241.553,22 242,21.553 242,21 L242,17 C242.553,17 243,16.553 243,16 L243,12 C243,11.447 242.553,11 242,11 L242,11 Z M240,20 L229,20 L229,8 L240,8 L240,11 L237,11 C236.447,11 236,11.447 236,12 L236,16 C236,16.553 236.447,17 237,17 L240,17 L240,20 L240,20 Z M238,13 L241,13 L241,15 L238,15 L238,13 Z" id="payment-info-icon"></path>
                </g>
            </g>
        </g>
    </g>
</svg>