<?xml version="1.0" encoding="UTF-8" standalone="no"?>
<svg width="19px" height="18px" viewBox="0 0 19 18" version="1.1" xmlns="http://www.w3.org/2000/svg" xmlns:xlink="http://www.w3.org/1999/xlink" xmlns:sketch="http://www.bohemiancoding.com/sketch/ns">
    <!-- Generator: Sketch 3.3.1 (12002) - http://www.bohemiancoding.com/sketch -->
    <title>contact icon</title>
    <desc>Created with Sketch.</desc>
    <defs></defs>
    <g id="Account" stroke="none" stroke-width="1" fill="none" fill-rule="evenodd" sketch:type="MSPage">
        <g id="Account---orders-Individual" sketch:type="MSArtboardGroup" transform="translate(-1302.000000, -938.000000)" fill="#B6BAC2">
            <g id="right-sidebar" sketch:type="MSLayerGroup" transform="translate(1077.000000, 261.000000)">
                <g id="contact" transform="translate(0.000000, 671.000000)" sketch:type="MSShapeGroup">
                    <g id="contact-icon" transform="translate(234.500000, 14.500000) rotate(-45.000000) translate(-234.500000, -14.500000) translate(226.000000, 6.000000)">
                        <path d="M15.999,7.998 L13.999,7.998 C13.446,7.998 12.999,8.445 12.999,8.998 C12.999,9.551 13.446,9.998 13.999,9.998 L15.999,9.998 C16.552,9.998 16.999,9.551 16.999,8.998 C16.999,8.445 16.552,7.998 15.999,7.998" id="Fill-1"></path>
                        <path d="M13.427,5.864 L15.159,4.864 C15.638,4.588 15.802,3.976 15.524,3.498 C15.249,3.02 14.638,2.855 14.159,3.132 L12.427,4.132 C11.948,4.408 11.784,5.019 12.061,5.498 C12.337,5.977 12.948,6.141 13.427,5.864" id="Fill-2"></path>
                        <path d="M15.159,13.132 L13.427,12.132 C12.948,11.855 12.338,12.02 12.061,12.498 C11.785,12.976 11.948,13.588 12.427,13.864 L14.159,14.864 C14.638,15.141 15.249,14.977 15.525,14.498 C15.802,14.019 15.638,13.408 15.159,13.132" id="Fill-3"></path>
                        <path d="M7.999,0.998 L3.999,0.998 C3.869,0.998 3.739,1.024 3.617,1.075 C3.494,1.126 3.383,1.199 3.29,1.293 C3.19,1.392 0.999,3.998 0.999,8.998 C0.999,13.998 3.078,16.42 3.167,16.553 C3.195,16.596 3.232,16.63 3.266,16.667 C3.281,16.684 3.293,16.701 3.31,16.717 C3.392,16.796 3.484,16.858 3.585,16.902 C3.606,16.914 3.629,16.92 3.651,16.928 C3.763,16.969 3.879,16.998 3.997,16.998 L7.999,16.998 C8.552,16.998 8.999,16.551 8.999,15.998 L8.999,11.998 C8.999,11.445 8.552,10.998 7.999,10.998 L6.999,10.998 L6.999,6.998 L7.999,6.998 C8.552,6.998 8.999,6.551 8.999,5.998 L8.999,1.998 C8.999,1.445 8.552,0.998 7.999,0.998 L7.999,0.998 Z M6.999,4.998 L5.999,4.998 C5.446,4.998 4.999,5.445 4.999,5.998 L4.999,11.998 C4.999,12.551 5.446,12.998 5.999,12.998 L6.999,12.998 L6.999,14.998 L4.57,14.998 C4.065,14.077 2.999,12.998 2.999,8.998 C2.999,4.998 3.998,3.623 4.469,2.998 L6.999,2.998 L6.999,4.998 L6.999,4.998 Z" id="Fill-4"></path>
                    </g>
                </g>
            </g>
        </g>
    </g>
</svg>