<?xml version="1.0" encoding="UTF-8" standalone="no"?>
<svg width="14px" height="14px" viewBox="0 0 14 14" version="1.1" xmlns="http://www.w3.org/2000/svg" xmlns:xlink="http://www.w3.org/1999/xlink" xmlns:sketch="http://www.bohemiancoding.com/sketch/ns">
    <!-- Generator: Sketch 3.3.1 (12002) - http://www.bohemiancoding.com/sketch -->
    <title>share icon</title>
    <desc>Created with Sketch.</desc>
    <defs></defs>
    <g id="Account" stroke="none" stroke-width="1" fill="none" fill-rule="evenodd" sketch:type="MSPage">
        <g id="Account---wishlist" sketch:type="MSArtboardGroup" transform="translate(-1306.000000, -415.000000)" fill="#B6BAC2">
            <g id="wishlist-table" sketch:type="MSLayerGroup" transform="translate(428.000000, 335.000000)">
                <g id="wishlist-1" transform="translate(0.000000, 58.000000)" sketch:type="MSShapeGroup">
                    <path d="M889.287027,35.9996499 L880.713616,35.9996499 C879.217534,35.9996499 878,34.7831099 878,33.2866961 L878,24.7136163 C878,23.2172025 879.217202,22 880.713616,22 L882.295151,22 C882.904912,22 883.39908,22.4941676 883.39908,23.1039281 C883.39908,23.7136886 882.904912,24.2078562 882.295151,24.2078562 L880.713616,24.2078562 C880.435067,24.2078562 880.208187,24.4347361 880.208187,24.7136163 L880.208187,33.2870273 C880.208187,33.565245 880.435067,33.7921249 880.713616,33.7921249 L889.287027,33.7921249 C889.565245,33.7921249 889.792125,33.565245 889.792125,33.2870273 L889.792125,31.5789693 C889.792125,30.9692088 890.286955,30.4753724 890.896053,30.4753724 C891.505813,30.4753724 891.999981,30.9692088 891.999981,31.5789693 L891.999981,33.2870273 C891.999981,34.7831099 890.783441,35.9996499 889.287027,35.9996499 Z M890.994754,22.0264969 C890.859289,21.9973503 890.721505,21.9933758 890.585045,22.0092739 L885.786452,22.0357708 C885.136284,22.0394142 884.611976,22.5696839 884.615951,23.2191897 C884.619925,23.8683644 885.148539,24.3930035 885.79937,24.3886977 L887.823735,24.3774365 L887.926079,24.3767741 L884.79083,27.5123539 C884.320179,27.9830055 884.320179,28.7464481 884.79083,29.2167685 C885.261813,29.6870889 886.023931,29.6870889 886.495245,29.2167685 L889.642086,26.0702588 L889.641755,26.1153035 L889.647385,28.193656 C889.65136,28.8424995 890.180967,29.3664761 890.829479,29.363164 C891.479648,29.3595207 892.003624,28.8295822 891.999981,28.1800764 L891.973153,23.3655852 C891.985739,23.233763 891.978452,23.1019408 891.949637,22.9721059 C891.902936,22.7157482 891.77542,22.4865498 891.590604,22.3173007 C891.427648,22.1679243 891.221965,22.0655799 890.994754,22.0264969 Z" id="share-icon"></path>
                </g>
            </g>
        </g>
    </g>
</svg>