<?xml version="1.0" encoding="UTF-8" standalone="no"?>
<svg width="16px" height="16px" viewBox="0 0 16 16" version="1.1" xmlns="http://www.w3.org/2000/svg" xmlns:xlink="http://www.w3.org/1999/xlink" xmlns:sketch="http://www.bohemiancoding.com/sketch/ns">
    <!-- Generator: Sketch 3.3.1 (12002) - http://www.bohemiancoding.com/sketch -->
    <title>ship to icon</title>
    <desc>Created with Sketch.</desc>
    <defs></defs>
    <g id="Account" stroke="none" stroke-width="1" fill="none" fill-rule="evenodd" sketch:type="MSPage">
        <g id="Account---orders-Individual" sketch:type="MSArtboardGroup" transform="translate(-1305.000000, -267.000000)" fill="#B6BAC2">
            <g id="right-sidebar" sketch:type="MSLayerGroup" transform="translate(1077.000000, 261.000000)">
                <g id="ship-to" transform="translate(1.000000, 0.000000)" sketch:type="MSShapeGroup">
                    <path d="M240,6 L230,6 C228.344,6 227,7.343 227,9 L227,19 C227,19.553 227.447,20 228,20 L229,20 L229,21 C229,21.553 229.447,22 230,22 L231,22 C231.553,22 232,21.553 232,21 L232,20 L238,20 L238,21 C238,21.553 238.447,22 239,22 L240,22 C240.553,22 241,21.553 241,21 L241,20 L242,20 C242.553,20 243,19.553 243,19 L243,9 C243,7.344 241.657,6 240,6 L240,6 Z M229,14 L241,14 L241,18 L229,18 L229,14 Z M241,12 L229,12 L229,9 C229,8.447 229.447,8 230,8 L240,8 C240.553,8 241,8.447 241,9 L241,12 Z M231,17 C231.553,17 232,16.553 232,16 C232,15.447 231.553,15 231,15 C230.447,15 230,15.447 230,16 C230,16.553 230.447,17 231,17 Z M239,17 C239.553,17 240,16.553 240,16 C240,15.447 239.553,15 239,15 C238.447,15 238,15.447 238,16 C238,16.553 238.447,17 239,17 Z" id="ship-to-icon"></path>
                </g>
            </g>
        </g>
    </g>
</svg>