<?xml version="1.0" encoding="UTF-8" standalone="no"?>
<svg width="12px" height="12px" viewBox="0 0 12 12" version="1.1" xmlns="http://www.w3.org/2000/svg" xmlns:xlink="http://www.w3.org/1999/xlink" xmlns:sketch="http://www.bohemiancoding.com/sketch/ns">
    <!-- Generator: Sketch 3.3.1 (12002) - http://www.bohemiancoding.com/sketch -->
    <title>star-4</title>
    <desc>Created with Sketch.</desc>
    <defs></defs>
    <g id="Home" stroke="none" stroke-width="1" fill="none" fill-rule="evenodd" sketch:type="MSPage">
        <g id="Styleguide" sketch:type="MSArtboardGroup" transform="translate(-299.000000, -2835.000000)" fill="#FC5F45">
            <g id="item-rollover" sketch:type="MSLayerGroup" transform="translate(120.000000, 2728.000000)">
                <g id="product" transform="translate(0.000000, 36.000000)" sketch:type="MSShapeGroup">
                    <g id="overlay" transform="translate(32.000000, 32.000000)">
                        <g id="reviews" transform="translate(39.250000, 37.000000)">
                            <path d="M119.287162,5.97941563 C118.727587,5.73221563 117.2463,5.62455313 115.968187,5.57767813 C115.56795,4.42121563 114.928162,2.69085313 114.392775,2.16202813 C114.174487,1.94599063 113.825887,1.94599063 113.607225,2.16202813 C113.072212,2.69122813 112.432087,4.42155313 112.032187,5.57767813 C110.75445,5.62455313 109.273875,5.73221563 108.71355,5.97907813 C108.411,6.11280313 108.284475,6.48109063 108.44475,6.77704063 C108.809512,7.44829063 109.734562,8.44732813 110.89545,9.43132813 C110.577937,10.7233156 110.366625,11.9032531 110.310262,12.7100281 C110.278837,13.1527531 110.738925,13.4626156 111.132037,13.2556531 C111.85875,12.8698156 112.791937,12.4603906 114.000187,11.7022156 C114.375262,11.9377156 116.7876,13.3204906 117.129112,13.3204906 C117.455062,13.3204906 117.713587,13.0408156 117.690112,12.7100281 C117.63375,11.9032531 117.422437,10.7233156 117.104925,9.43132813 C118.266187,8.44695313 119.191237,7.44791563 119.555625,6.77666563 C119.715187,6.48285313 119.590762,6.11287813 119.287162,5.97941563 L119.287162,5.97941563 Z" id="star-4"></path>
                        </g>
                    </g>
                </g>
            </g>
        </g>
    </g>
</svg>